<svg version="1.1" viewBox="0 0 2048 2048" width="26" height="26" xmlns="http://www.w3.org/2000/svg"><path transform="translate(432,988)" d="m0 0h20l17 3 16 6 23 12 27 16 23 15 24 15 15 10 17 10 18 10 21 11 25 11 34 13 24 8 28 7 28 5 37 4 32 1 30-2 36-5 32-7 30-9 33-12 33-14 27-14 25-15 19-12 17-11 22-14 19-12 21-12 16-8 12-5 10-3 7-1h31l31 3 33 5 26 6 30 10 24 10 24 12 23 14 17 12 13 10 14 12 8 7 5 5 14 15 10 11 13 17 13 18 11 18 9 14 14 25 11 22 13 30 13 34 9 27 13 47 7 30 11 58 6 42 6 53 3 40 2 50v77l-2 25-4 25-8 36-8 24-11 26-13 25-15 24-11 14-11 13-10 10-5 6-11 9-11 10-20 15-24 14-21 11-24 10-28 10-28 8-26 6-24 4h-1085l-43-11-31-9-23-7-30-13-23-12-24-16-13-11-11-9-26-26-7-8-12-15-14-21-10-18-12-25-8-20-10-34-7-29-3-13v-169l6-47 12-76 11-58 9-38 12-41 9-27 11-28 8-19 16-32 12-23 12-20 9-13 14-21 16-21 14-15 21-21 8-7 12-10 17-12 19-12 18-10 27-13 30-11 30-8 32-6 33-4zm-1 119-18 3-15 2-23 5-23 7-23 10-15 8-19 12-13 10-13 11-16 16-9 11-8 10-10 15-20 32-8 16-13 27-11 28-11 31-12 44-8 33-8 46-8 51-4 45-3 68v66l3 31 5 25 5 17 10 24 10 18 12 17 12 13 8 8 11 9 13 10 21 13 20 9 16 6 29 7 21 3 36 3 51 2h873l58-1 27-1 35-3 25-5 22-6 12-4 24-11 19-11 14-11 10-9 6-5 14-16 10-13 11-19 5-11 8-24 6-24 4-31 1-15v-50l-2-56-3-42-6-51-4-28-8-42-9-39-8-30-12-36-7-19-14-32-16-31-11-18-12-18-12-16-10-11-7-8-10-10-14-11-15-11-18-10-23-11-28-10-30-7-33-4-10 2-22 12-23 15-15 10-19 12-25 16-23 13-23 12-24 11-30 12-47 16-30 8-31 7-33 5-41 4-16 1h-26l-40-3-32-4-27-5-31-8-26-8-30-11-34-13-27-12-19-10-29-17-23-15-19-12-17-11-25-16-20-11z" fill="#FEB207" /><path transform="translate(784)" d="m0 0h110l48 9 29 7 20 6 32 11 24 10 21 10 18 10 21 13 17 12 16 12 14 11 10 9 8 7 13 12 19 19 7 8 10 11 11 14 10 13 12 17 17 28 14 27 11 23 10 26 8 25 8 31 5 27 4 30 3 36v41l-4 40-6 39-7 30-9 30-9 24-9 21-16 32-13 21-10 16-12 16-11 14-11 13-7 8-13 15-18 18-8 7-11 10-11 9-13 10-12 9-19 13-15 9-16 9-21 11-28 12-26 9-26 8-36 8-37 6-31 3-23 1h-18l-35-2-27-3-37-7-28-7-33-11-27-11-29-14-21-12-13-8-12-8-18-13-16-13-11-9-32-30-7-8-9-9-7-8-12-14-10-13-11-15-10-15-8-13-13-23-16-33-14-37-6-19-7-28-6-32-4-31-2-24v-41l3-37 4-31 6-30 10-36 8-23 10-24 14-29 12-21 13-21 8-11 10-14 10-13 8-10 13-15 7-7 1-2h2l2-4 8-8h2l2-4h2l1-3 8-7 11-10 14-11 17-13 19-13 19-12 19-11 30-15 27-11 33-11 36-9 31-6zm42 119-32 2-28 4-26 6-36 12-19 8-16 8-17 9-10 7-19 13-14 11-10 9-8 7-16 15-14 15-13 14-13 18-13 20-12 20-13 27-11 28-7 21-5 24-4 27-3 33v38l3 29 5 30 6 24 8 24 11 27 14 27 11 17 12 17 9 12 12 14 24 26 8 7 10 9 17 13 16 12 15 10 14 8 19 10 17 8 30 11 26 7 23 4 34 4 16 1h33l24-2 32-5 27-6 33-11 21-9 27-14 22-14 17-12 22-18 13-12 9-8 7-8 8-8 9-11 13-16 11-16 12-19 16-31 10-26 6-19 7-29 6-39 2-23v-30l-3-36-4-28-6-25-8-26-12-29-11-22-13-22-12-17-13-17-9-10-7-8-15-16-10-9-11-10-9-7-13-10-24-16-21-12-25-12-25-10-35-10-36-6-22-2-19-1z" fill="#FEB207" /></svg>